<svg xmlns="http://www.w3.org/2000/svg" viewBox="0 0 512 512">
  <rect width="512" height="512" rx="112" fill="#8FA57B"/>
  <path d="M256 122L403 240V400C403 411 394 420 383 420H317C306 420 297 411 297 400V318C297 313 293 309 288 309H224C219 309 215 313 215 318V400C215 411 206 420 195 420H129C118 420 109 411 109 400V240L256 122Z" fill="#F7F3E9"/>
  <path d="M256 96L432 236C440 242 441 254 435 261C429 269 417 270 410 264L256 141L102 264C95 270 83 269 77 261C71 254 72 242 80 236L256 96Z" fill="#C57B5B"/>
  <rect x="228" y="336" width="56" height="84" rx="8" fill="#8FA57B"/>
</svg>
